<?xml version="1.0" standalone="no"?>
<!DOCTYPE svg PUBLIC "-//W3C//DTD SVG 20010904//EN"
 "http://www.w3.org/TR/2001/REC-SVG-20010904/DTD/svg10.dtd">
<svg version="1.0" xmlns="http://www.w3.org/2000/svg"
 width="700.000000pt" height="700.000000pt" viewBox="0 0 700.000000 700.000000"
 preserveAspectRatio="xMidYMid meet">
<metadata>
Created by potrace 1.14, written by Peter Selinger 2001-2017
</metadata>
<g transform="translate(0.000000,700.000000) scale(0.100000,-0.100000)"
fill="#000000" stroke="none">
<path d="M303 6545 c-88 -38 -87 -164 2 -201 27 -11 93 -14 292 -14 250 0 260
-1 308 -24 51 -23 94 -65 119 -115 7 -14 43 -138 79 -276 37 -137 230 -869
431 -1625 200 -756 367 -1387 371 -1401 6 -25 4 -27 -45 -33 -73 -10 -203 -52
-285 -93 -232 -117 -438 -338 -526 -568 -48 -124 -70 -221 -76 -341 l-6 -111
31 -34 30 -34 2612 0 2612 0 29 33 c43 47 41 102 -5 148 l-34 34 -2521 0
c-2427 0 -2521 1 -2521 18 0 42 44 182 81 257 94 194 266 353 461 427 151 57
-10 52 2084 58 1904 5 1922 5 1944 25 50 44 396 813 613 1362 192 484 377
1007 377 1065 0 27 -8 46 -27 68 -32 36 -97 54 -583 164 -983 224 -1995 372
-3000 441 -445 30 -634 36 -1205 42 -319 3 -582 6 -583 8 -2 2 -28 95 -58 207
-30 112 -68 231 -84 265 -62 127 -205 230 -350 253 -102 16 -528 12 -567 -5z
m2322 -965 c1043 -46 2045 -168 3045 -371 266 -54 808 -177 826 -188 8 -4 -16
-83 -76 -251 -207 -579 -439 -1146 -670 -1640 -45 -96 -89 -192 -97 -212 l-16
-38 -1748 0 -1747 0 -11 33 c-5 17 -166 622 -357 1342 -191 721 -349 1315
-351 1322 -3 9 18 13 74 16 122 7 872 -2 1128 -13z"/>
<path d="M2816 4093 c-14 -93 -26 -174 -26 -180 0 -8 14 -13 34 -13 l34 0 12
73 c16 103 23 122 48 125 32 5 35 -15 19 -107 -16 -89 -13 -96 35 -89 20 3 25
12 35 68 18 99 16 147 -7 170 -22 22 -69 27 -88 8 -15 -15 -16 18 -3 75 l9 37
-38 0 -37 0 -27 -167z"/>
<path d="M4010 4253 c0 -5 -13 -84 -29 -176 -30 -180 -30 -182 21 -175 22 3
25 13 50 158 36 206 36 200 -7 200 -19 0 -35 -3 -35 -7z"/>
<path d="M4255 4205 c-6 -54 -18 -75 -30 -55 -9 15 -58 12 -83 -6 -64 -45 -79
-203 -22 -234 26 -14 63 -13 79 3 11 10 14 10 18 0 3 -7 17 -13 33 -13 33 0
30 -9 60 185 11 72 22 140 25 153 5 20 2 22 -34 22 l-39 0 -7 -55z m-31 -164
c-2 -57 -21 -88 -48 -78 -11 5 -16 19 -16 49 0 49 24 91 48 86 14 -3 17 -15
16 -57z"/>
<path d="M2090 4210 c0 -29 2 -30 43 -30 l43 0 -21 -132 c-12 -73 -20 -136
-18 -140 2 -5 19 -8 37 -8 l33 0 23 140 23 140 47 0 c45 0 48 2 52 30 l5 30
-134 0 -133 0 0 -30z"/>
<path d="M3195 4078 c4 -90 11 -167 15 -171 4 -5 22 -7 40 -5 32 3 34 6 66 93
36 100 42 97 46 -25 l3 -65 40 0 40 0 57 168 57 167 -38 0 -37 0 -29 -90 c-16
-49 -32 -87 -37 -84 -4 3 -8 43 -8 90 l0 85 -36 -3 c-36 -3 -37 -4 -68 -92
-37 -101 -46 -98 -46 20 l0 74 -36 0 -36 0 7 -162z"/>
<path d="M4471 4103 c-12 -76 -24 -153 -27 -171 l-6 -33 108 3 109 3 3 33 3
32 -65 0 c-63 0 -66 1 -66 24 0 49 8 56 71 56 44 0 59 4 59 14 0 8 3 21 6 30
5 14 -3 16 -55 16 -64 0 -67 3 -55 48 6 20 12 22 74 22 53 0 69 4 74 16 16 42
11 44 -103 44 l-108 0 -22 -137z"/>
<path d="M2386 4139 c-60 -48 -77 -154 -32 -206 21 -24 31 -28 79 -28 40 0 61
5 76 19 l22 20 -21 20 c-15 16 -22 18 -32 8 -25 -25 -78 -8 -78 25 0 9 19 13
70 13 66 0 70 1 76 24 8 34 -13 93 -39 111 -31 22 -89 19 -121 -6z m89 -64 c0
-15 -8 -21 -32 -23 -35 -3 -44 13 -21 36 19 19 53 10 53 -13z"/>
<path d="M2621 4135 c-37 -32 -55 -84 -48 -143 9 -83 82 -117 155 -72 17 11
32 24 32 29 0 5 3 16 6 25 5 13 -1 16 -30 16 -23 0 -39 -5 -42 -15 -9 -22 -42
-18 -49 5 -9 29 4 96 21 111 17 14 44 5 44 -16 0 -11 10 -15 35 -15 31 0 35 3
35 25 0 69 -99 100 -159 50z"/>
<path d="M3604 4141 c-32 -19 -64 -82 -64 -125 0 -118 139 -160 200 -61 76
123 -21 256 -136 186z m84 -97 c2 -37 -2 -56 -13 -68 -50 -50 -83 31 -43 107
6 11 18 17 31 15 19 -3 22 -10 25 -54z"/>
<path d="M3820 4153 c0 -5 -9 -60 -20 -123 -11 -63 -20 -118 -20 -122 0 -5 16
-8 35 -8 38 0 35 -5 58 110 11 62 14 66 47 76 29 10 36 17 38 43 3 27 0 31
-20 31 -13 0 -29 -5 -36 -12 -9 -9 -12 -9 -12 0 0 7 -14 12 -35 12 -19 0 -35
-3 -35 -7z"/>
<path d="M4720 4148 c0 -6 7 -35 16 -63 l17 -52 -42 -61 c-22 -33 -41 -63 -41
-66 0 -4 17 -6 38 -6 32 0 40 6 61 38 l25 37 14 -37 c13 -34 19 -38 48 -38 19
0 34 3 34 6 0 4 -10 33 -21 65 l-22 59 25 37 c14 21 33 50 42 66 l18 27 -40 0
c-35 0 -44 -5 -59 -30 -9 -16 -20 -30 -23 -30 -3 0 -11 14 -17 30 -9 24 -17
30 -42 30 -17 0 -31 -5 -31 -12z"/>
<path d="M4955 4148 c-4 -13 -55 -321 -55 -333 0 -3 17 -5 37 -3 37 3 38 4 46
54 l8 52 29 -11 c45 -17 81 0 108 53 57 115 0 237 -89 190 -13 -7 -19 -7 -19
0 0 14 -60 12 -65 -2z m123 -93 c3 -53 -17 -90 -48 -90 -24 0 -25 3 -22 49 4
64 17 88 45 84 18 -2 22 -10 25 -43z"/>
<path d="M5205 4148 c-7 -22 -35 -205 -35 -227 0 -19 5 -22 33 -19 32 3 32 3
48 87 17 85 27 101 65 101 17 0 23 7 26 35 3 30 1 35 -16 35 -11 0 -28 -7 -38
-17 -17 -15 -18 -15 -18 0 0 20 -58 24 -65 5z"/>
<path d="M5412 4146 c-33 -18 -60 -64 -68 -112 -15 -100 77 -165 166 -119 53
28 29 74 -27 53 -25 -9 -35 -9 -47 1 -35 29 -19 41 54 41 l70 0 0 46 c0 82
-78 130 -148 90z m76 -74 c3 -19 -1 -22 -27 -22 -37 0 -46 13 -25 35 22 21 48
15 52 -13z"/>
<path d="M5645 4150 c-34 -13 -46 -36 -43 -77 3 -35 7 -40 55 -63 54 -25 60
-36 30 -54 -12 -8 -22 -5 -41 13 -25 24 -66 26 -74 4 -2 -7 10 -26 26 -43 47
-47 133 -39 168 15 26 40 10 74 -50 105 -51 26 -58 39 -31 55 12 7 20 6 29 -7
19 -26 76 -24 76 1 0 46 -86 76 -145 51z"/>
<path d="M5857 4140 c-30 -24 -41 -63 -26 -91 6 -12 31 -30 55 -41 31 -13 44
-25 42 -36 -5 -25 -45 -27 -58 -3 -7 14 -21 21 -40 21 -39 0 -39 -22 -1 -61
22 -21 39 -29 66 -29 118 0 152 112 45 151 -48 18 -56 35 -27 53 14 9 21 7 31
-6 17 -23 76 -25 76 -3 0 9 -11 27 -25 40 -31 32 -100 35 -138 5z"/>
<path d="M1230 1145 c-113 -32 -198 -111 -241 -223 -16 -45 -20 -74 -17 -137
5 -139 79 -248 207 -308 55 -26 77 -31 140 -30 107 0 180 30 252 102 74 75
102 145 103 257 0 72 -4 90 -32 147 -77 156 -251 237 -412 192z m160 -231 c39
-24 60 -65 60 -119 0 -42 -5 -52 -39 -86 -33 -34 -45 -39 -83 -39 -124 0 -181
139 -93 227 28 28 40 33 80 33 26 0 59 -7 75 -16z"/>
<path d="M5393 1150 c-64 -15 -143 -62 -187 -111 -61 -68 -89 -143 -89 -239 0
-102 28 -174 96 -244 116 -117 273 -144 417 -71 196 99 251 359 115 538 -77
101 -230 156 -352 127z m151 -241 c104 -82 50 -239 -83 -239 -37 0 -49 6 -82
39 -35 35 -39 44 -39 91 0 47 4 56 39 91 35 35 44 39 88 39 36 0 58 -6 77 -21z"/>
</g>
</svg>
